<?xml version="1.0" encoding="UTF-8" standalone="no"?>
<svg
   xmlns:dc="http://purl.org/dc/elements/1.1/"
   xmlns:cc="http://creativecommons.org/ns#"
   xmlns:rdf="http://www.w3.org/1999/02/22-rdf-syntax-ns#"
   xmlns:svg="http://www.w3.org/2000/svg"
   xmlns="http://www.w3.org/2000/svg"
   xmlns:sodipodi="http://sodipodi.sourceforge.net/DTD/sodipodi-0.dtd"
   xmlns:inkscape="http://www.inkscape.org/namespaces/inkscape"
   inkscape:export-ydpi="94"
   inkscape:export-xdpi="94"
   inkscape:export-filename="C:\Users\soere\Desktop\JETZT\Chattarize.png"
   width="300mm"
   height="50mm"
   viewBox="0 0 300 50"
   version="1.1"
   id="svg8"
   inkscape:version="1.0 (4035a4fb49, 2020-05-01)"
   sodipodi:docname="Chattarize.svg">
  <defs
     id="defs2">
    <rect
       x="74.300926"
       y="38.486813"
       width="69.490074"
       height="13.898015"
       id="rect18" />
    <rect
       x="18.708866"
       y="32.072342"
       width="174.79427"
       height="73.23185"
       id="rect12" />
  </defs>
  <sodipodi:namedview
     id="base"
     pagecolor="#ffffff"
     bordercolor="#666666"
     borderopacity="1.0"
     inkscape:pageopacity="0.0"
     inkscape:pageshadow="2"
     inkscape:zoom="0.24748737"
     inkscape:cx="716.01328"
     inkscape:cy="-111.83694"
     inkscape:document-units="mm"
     inkscape:current-layer="layer1"
     inkscape:document-rotation="0"
     showgrid="false"
     inkscape:window-width="1296"
     inkscape:window-height="728"
     inkscape:window-x="54"
     inkscape:window-y="0"
     inkscape:window-maximized="0" />
  <metadata
     id="metadata5">
    <rdf:RDF>
      <cc:Work
         rdf:about="">
        <dc:format>image/svg+xml</dc:format>
        <dc:type
           rdf:resource="http://purl.org/dc/dcmitype/StillImage" />
        <dc:title></dc:title>
      </cc:Work>
    </rdf:RDF>
  </metadata>
  <g
     inkscape:label="Ebene 1"
     inkscape:groupmode="layer"
     id="layer1"
     style="display:inline">
    <g
       transform="matrix(5.8559371,0,0,5.8559371,-107.92906,-404.51284)"
       aria-label="Chattarize"
       id="text10"
       style="font-style:normal;font-weight:normal;font-size:50.8px;line-height:1.25;font-family:sans-serif;white-space:pre;shape-inside:url(#rect12);fill:#000000;fill-opacity:1;stroke:none">
      <path
         d="m 25.596759,76.154556 c -0.208401,0.219646 -1.521448,0.83402 -2.493899,0.886744 -1.197594,0.06493 -2.14951,-0.217474 -2.850473,-0.886282 -0.700962,-0.672024 -1.218486,-1.598693 -1.218486,-2.746599 0,-1.151121 0.517524,-2.044382 1.218486,-2.71319 2.040595,-1.686361 5.066449,-0.869417 5.727986,0.740238 0.188103,0.849692 -0.216523,0.766318 -0.377557,0.707417 -0.197108,-0.07209 -0.204032,-0.265647 -0.475265,-0.623506 -1.715072,-1.846647 -5.52764,-0.644763 -5.034274,2.353404 0.707684,2.733536 3.864705,2.716851 5.752272,1.254491 0.23256,0.493469 1.374595,3.168673 -0.24879,1.027283 z"
         style="font-size:9.87778px"
         id="path30"
         sodipodi:nodetypes="cscsccscccc" />
      <path
         d="m 31.329062,74.198891 v 2.819468 H 29.84078 v -0.458887 -1.690854 q 0,-0.607715 -0.02894,-0.835091 -0.02481,-0.227377 -0.09095,-0.334864 -0.08682,-0.144694 -0.235644,-0.223242 -0.148828,-0.08268 -0.338998,-0.08268 -0.463021,0 -0.727604,0.359668 -0.264584,0.355534 -0.264584,0.988054 v 2.277898 h -1.480013 v -6.432685 h 1.480013 v 2.48047 q 0.334864,-0.405144 0.711068,-0.595313 0.376205,-0.194304 0.830958,-0.194304 0.802018,0 1.21543,0.49196 0.417546,0.49196 0.417546,1.430404 z"
         style="font-style:normal;font-variant:normal;font-weight:bold;font-stretch:normal;font-size:8.46667px;font-family:sans-serif;-inkscape-font-specification:'sans-serif Bold'"
         id="path32" />
      <path
         d="m 34.785183,74.934764 q -0.463021,0 -0.698665,0.157097 -0.231511,0.157096 -0.231511,0.463021 0,0.281119 0.186035,0.44235 0.19017,0.157096 0.525033,0.157096 0.417546,0 0.7028,-0.297656 0.285254,-0.30179 0.285254,-0.752409 v -0.169499 z m 2.261362,-0.558106 v 2.641701 h -1.492416 v -0.686264 q -0.297657,0.42168 -0.669727,0.615984 -0.37207,0.190169 -0.905371,0.190169 -0.719337,0 -1.169955,-0.417546 -0.446485,-0.42168 -0.446485,-1.091406 0,-0.814421 0.558106,-1.19476 0.56224,-0.380339 1.761133,-0.380339 h 0.872299 v -0.115755 q 0,-0.3514 -0.276986,-0.51263 -0.276986,-0.165365 -0.86403,-0.165365 -0.475424,0 -0.884701,0.09508 -0.409278,0.09508 -0.760678,0.285254 v -1.128614 q 0.475424,-0.115755 0.954981,-0.173633 0.479558,-0.06201 0.959115,-0.06201 1.252637,0 1.806609,0.496094 0.558106,0.49196 0.558106,1.604037 z"
         style="font-style:normal;font-variant:normal;font-weight:bold;font-stretch:normal;font-size:8.46667px;font-family:sans-serif;-inkscape-font-specification:'sans-serif Bold'"
         id="path34" />
      <path
         d="m 40.047913,71.0735 v 1.314649 h 1.525489 v 1.058333 h -1.525489 v 1.963705 q 0,0.322462 0.128158,0.438217 0.128157,0.111621 0.508496,0.111621 h 0.760677 v 1.058334 h -1.269173 q -0.876433,0 -1.244369,-0.363803 -0.363803,-0.367936 -0.363803,-1.244369 v -1.963705 h -0.735872 v -1.058333 h 0.735872 V 71.0735 Z"
         style="font-style:normal;font-variant:normal;font-weight:bold;font-stretch:normal;font-size:8.46667px;font-family:sans-serif;-inkscape-font-specification:'sans-serif Bold'"
         id="path36" />
      <path
         d="m 44.099347,71.0735 v 1.314649 h 1.525488 v 1.058333 h -1.525488 v 1.963705 q 0,0.322462 0.128157,0.438217 0.128158,0.111621 0.508496,0.111621 h 0.760678 v 1.058334 h -1.269174 q -0.876432,0 -1.244369,-0.363803 -0.363802,-0.367936 -0.363802,-1.244369 V 73.446482 H 41.88346 v -1.058333 h 0.735873 V 71.0735 Z"
         style="font-style:normal;font-variant:normal;font-weight:bold;font-stretch:normal;font-size:8.46667px;font-family:sans-serif;-inkscape-font-specification:'sans-serif Bold'"
         id="path38" />
      <path
         d="m 48.609667,74.934764 q -0.463021,0 -0.698666,0.157097 -0.23151,0.157096 -0.23151,0.463021 0,0.281119 0.186035,0.44235 0.190169,0.157096 0.525033,0.157096 0.417546,0 0.7028,-0.297656 0.285254,-0.30179 0.285254,-0.752409 v -0.169499 z m 2.261362,-0.558106 v 2.641701 h -1.492416 v -0.686264 q -0.297657,0.42168 -0.669727,0.615984 -0.372071,0.190169 -0.905372,0.190169 -0.719336,0 -1.169955,-0.417546 -0.446484,-0.42168 -0.446484,-1.091406 0,-0.814421 0.558106,-1.19476 0.562239,-0.380339 1.761133,-0.380339 h 0.872299 v -0.115755 q 0,-0.3514 -0.276986,-0.51263 -0.276986,-0.165365 -0.86403,-0.165365 -0.475424,0 -0.884701,0.09508 -0.409278,0.09508 -0.760678,0.285254 v -1.128614 q 0.475424,-0.115755 0.954981,-0.173633 0.479558,-0.06201 0.959115,-0.06201 1.252637,0 1.806609,0.496094 0.558106,0.49196 0.558106,1.604037 z"
         style="font-style:normal;font-variant:normal;font-weight:bold;font-stretch:normal;font-size:8.46667px;font-family:sans-serif;-inkscape-font-specification:'sans-serif Bold'"
         id="path40" />
      <path
         d="m 55.695544,73.649054 q -0.194303,-0.09095 -0.388607,-0.132292 -0.190169,-0.04547 -0.384473,-0.04547 -0.570508,0 -0.880566,0.367936 -0.305925,0.363803 -0.305925,1.045932 v 2.133204 h -1.480014 v -4.63021 h 1.480014 v 0.760677 q 0.285254,-0.454753 0.65319,-0.661459 0.372071,-0.21084 0.888835,-0.21084 0.07441,0 0.161231,0.0083 0.08682,0.0041 0.252181,0.0248 z"
         style="font-style:normal;font-variant:normal;font-weight:bold;font-stretch:normal;font-size:8.46667px;font-family:sans-serif;-inkscape-font-specification:'sans-serif Bold'"
         id="path42" />
      <path
         d="m 56.439683,72.388149 h 1.480013 v 4.63021 h -1.480013 z m 0,-1.802475 h 1.480013 v 1.207162 h -1.480013 z"
         style="font-style:normal;font-variant:normal;font-weight:bold;font-stretch:normal;font-size:8.46667px;font-family:sans-serif;-inkscape-font-specification:'sans-serif Bold'"
         id="path44" />
      <path
         d="m 59.122726,72.388149 h 4.039031 v 1.033529 l -2.439128,2.538347 h 2.439128 v 1.058334 H 59.019373 V 75.98483 l 2.439129,-2.538348 h -2.335776 z"
         style="font-style:normal;font-variant:normal;font-weight:bold;font-stretch:normal;font-size:8.46667px;font-family:sans-serif;-inkscape-font-specification:'sans-serif Bold'"
         id="path46" />
      <path
         d="m 68.899908,74.690851 v 0.42168 h -3.460255 q 0.05374,0.520899 0.376205,0.781348 0.322461,0.260449 0.901237,0.260449 0.467155,0 0.954981,-0.136425 0.49196,-0.14056 1.008724,-0.42168 v 1.141016 q -0.525033,0.198437 -1.050065,0.297656 -0.525033,0.103353 -1.050066,0.103353 -1.256771,0 -1.955437,-0.636654 -0.694531,-0.640788 -0.694531,-1.794206 0,-1.132748 0.682129,-1.781804 0.686263,-0.649057 1.885157,-0.649057 1.091406,0 1.744597,0.657325 0.657324,0.657324 0.657324,1.756999 z m -1.521354,-0.49196 q 0,-0.421679 -0.248047,-0.677995 -0.243913,-0.260449 -0.640788,-0.260449 -0.429949,0 -0.698666,0.243913 -0.268718,0.239779 -0.334864,0.694531 z"
         style="font-style:normal;font-variant:normal;font-weight:bold;font-stretch:normal;font-size:8.46667px;font-family:sans-serif;-inkscape-font-specification:'sans-serif Bold'"
         id="path48" />
    </g>
    <text
       xml:space="preserve"
       id="text16"
       style="font-style:normal;font-weight:normal;font-size:10.5833px;line-height:1.25;font-family:sans-serif;white-space:pre;shape-inside:url(#rect18);fill:#000000;fill-opacity:1;stroke:none;" />
    <text
       xml:space="preserve"
       style="font-style:normal;font-weight:normal;font-size:29.8216px;line-height:1.25;font-family:sans-serif;fill:#000000;fill-opacity:1;stroke:none;stroke-width:0.745543"
       x="11.298615"
       y="28.454321"
       id="text53"
       transform="scale(1.0627712,0.9409363)"><tspan
         sodipodi:role="line"
         id="tspan51"
         x="11.298615"
         y="28.454321"
         style="stroke-width:0.745543">...</tspan></text>
    <text
       xml:space="preserve"
       style="font-style:normal;font-weight:normal;font-size:10.5833px;line-height:1.25;font-family:sans-serif;fill:#000000;fill-opacity:1;stroke:none;stroke-width:0.264583"
       x="16.914434"
       y="52.538689"
       id="text57"><tspan
         sodipodi:role="line"
         id="tspan55"
         x="16.914434"
         y="52.538689"
         style="stroke-width:0.264583" /></text>
  </g>
</svg>
